<?xml version="1.0" standalone="no"?>
<!DOCTYPE svg PUBLIC "-//W3C//DTD SVG 20010904//EN"
 "http://www.w3.org/TR/2001/REC-SVG-20010904/DTD/svg10.dtd">
<svg version="1.0" xmlns="http://www.w3.org/2000/svg"
 width="225.000000pt" height="225.000000pt" viewBox="0 0 225.000000 225.000000"
 preserveAspectRatio="xMidYMid meet">

<g transform="translate(0.000000,225.000000) scale(0.100000,-0.100000)"
fill="#000000" stroke="none">
<path d="M335 1942 c-28 -4 -72 -99 -90 -197 -14 -74 -21 -335 -9 -347 3 -4
20 -2 37 3 17 5 80 12 140 15 116 8 127 19 31 33 l-59 9 50 2 c63 3 54 3 92
-5 27 -5 32 -4 27 8 -3 8 -15 19 -27 25 -17 8 -18 11 -5 11 9 1 20 -3 23 -9 3
-5 13 -10 21 -10 14 0 14 2 0 15 -19 19 -49 19 -85 0 -16 -8 -31 -11 -35 -8
-4 4 6 12 21 19 l28 12 -27 1 c-16 1 -54 -17 -95 -45 -50 -33 -59 -37 -36 -15
17 16 29 32 26 35 -4 3 1 6 10 6 10 0 17 4 17 9 0 5 10 11 23 13 12 2 21 9 20
15 -2 7 16 10 55 7 37 -2 52 0 42 5 -8 6 -18 7 -22 5 -4 -3 -18 2 -30 10 -22
16 -22 16 -1 16 11 0 40 -7 63 -15 24 -8 45 -13 48 -10 3 3 12 -1 21 -8 22
-19 51 -28 51 -17 0 14 -47 43 -62 37 -7 -2 -21 3 -31 11 -26 23 -141 18 -209
-8 -28 -11 -54 -17 -56 -15 -4 4 26 19 78 38 10 3 6 6 -10 7 -15 1 -4 7 30 14
l55 12 -45 8 c-25 4 -56 13 -70 21 l-25 14 35 1 c28 1 31 3 15 9 -19 8 -19 9
5 16 l25 9 -25 7 c-21 6 -19 7 15 9 22 1 49 5 60 9 16 7 14 9 -14 14 -19 4
-45 8 -60 8 -17 1 -20 3 -8 6 9 2 17 8 17 13 0 5 -8 6 -17 3 -16 -6 -16 -5 -4
10 9 12 10 17 2 17 -15 0 18 35 41 43 10 3 20 2 23 -4 4 -5 11 -6 17 -3 11 7
128 -103 128 -121 1 -5 17 -28 36 -50 35 -39 36 -39 13 -5 -13 19 -27 37 -31
38 -4 2 -8 8 -8 14 0 19 -91 128 -128 153 -20 14 -31 25 -24 25 26 0 112 -95
197 -215 47 -69 93 -125 101 -125 8 0 14 -4 14 -10 0 -5 6 -10 13 -10 8 0 24
-12 38 -27 18 -20 20 -25 6 -20 -15 5 -16 2 -11 -21 10 -39 43 -102 54 -102
12 0 12 -2 -1 60 -6 27 -14 48 -18 45 -5 -2 -6 8 -3 23 3 15 7 21 10 14 2 -6
9 -9 14 -6 7 4 8 2 4 -4 -8 -13 13 -136 22 -127 3 2 12 -1 20 -8 13 -10 15 -9
8 8 -4 10 -10 38 -13 62 -3 24 -9 43 -14 43 -5 0 -6 6 -3 14 3 7 -2 29 -10 47
-8 20 -15 27 -15 17 -1 -29 -21 -21 -36 15 l-14 32 -1 -28 0 -28 -34 35 c-18
20 -38 36 -43 36 -5 0 -15 11 -21 25 -7 14 -16 31 -22 38 -5 7 -36 46 -68 87
-62 80 -113 132 -150 157 -25 17 -86 30 -117 25z"/>
<path d="M1733 1736 c-132 -59 -280 -172 -315 -240 -20 -39 -17 -37 64 40 47
44 111 97 142 118 57 38 142 73 153 63 3 -3 -13 -10 -34 -16 -22 -6 -69 -30
-104 -52 -66 -43 -203 -169 -222 -204 -9 -17 -8 -18 5 -8 8 7 19 9 23 5 5 -4
4 0 0 8 -8 13 -6 13 7 2 11 -9 18 -10 23 -2 3 6 10 8 15 5 5 -3 12 0 16 6 4 8
3 9 -4 5 -7 -4 -12 -4 -12 -1 0 11 75 39 99 36 15 -2 21 1 16 8 -3 6 -10 9
-15 6 -4 -3 -19 -1 -32 4 -12 6 -17 10 -10 10 7 1 11 5 8 10 -3 5 9 16 27 25
17 8 28 16 22 16 -5 1 10 12 35 25 25 13 38 24 30 25 -8 0 6 14 33 30 33 21
55 28 71 24 33 -8 40 -40 13 -60 -16 -11 -18 -18 -9 -21 10 -4 9 -9 -5 -20
-10 -8 -12 -11 -4 -7 9 5 12 3 7 -4 -4 -7 -17 -12 -29 -13 -14 0 -17 -3 -7 -6
18 -7 57 -43 46 -43 -4 0 -17 5 -28 11 -15 8 -19 8 -13 0 6 -11 -20 -9 -65 5
-12 4 -13 3 -2 -8 7 -7 37 -13 70 -14 31 0 67 -6 79 -12 21 -11 22 -10 27 30
3 24 7 81 9 128 3 68 0 88 -12 98 -10 9 -11 11 -2 6 9 -5 12 -3 7 4 -11 19
-46 13 -123 -22z"/>
<path d="M390 1664 l-35 -12 30 -1 c17 -1 52 -8 80 -16 27 -9 59 -17 70 -20
11 -2 35 -8 53 -14 30 -9 32 -8 21 5 -16 19 -89 57 -89 46 0 -4 6 -14 13 -22
6 -8 0 -5 -14 8 -14 12 -39 22 -56 22 -17 0 -33 4 -35 9 -1 4 -19 2 -38 -5z"/>
<path d="M657 1585 c15 -19 29 -32 31 -30 6 6 -38 65 -49 65 -5 0 3 -16 18
-35z"/>
<path d="M881 1478 c10 -40 21 -86 25 -103 l7 -30 7 25 c7 21 8 19 9 -15 0
-28 -2 -36 -8 -26 -8 12 -11 8 -17 -15 -8 -34 -64 -144 -73 -144 -12 0 -35 74
-33 106 2 17 -4 37 -12 43 -12 10 -14 4 -10 -41 4 -37 2 -49 -5 -38 -5 8 -8
17 -6 20 2 3 -7 6 -20 6 -23 2 -23 2 -5 -19 11 -11 17 -23 15 -27 -3 -4 2 -13
10 -20 24 -20 18 -26 -32 -27 -56 -2 -123 -18 -164 -38 -38 -20 -66 -20 -49
-1 6 8 18 12 26 9 8 -3 14 -2 14 1 0 4 -10 11 -22 16 -22 8 -22 9 4 9 20 1 26
5 22 16 -4 9 0 15 10 15 9 0 16 7 16 16 0 11 5 14 16 10 30 -11 37 7 8 20
l-29 13 31 -6 c38 -6 53 11 23 27 -11 7 -18 14 -16 17 3 2 17 -3 32 -13 25
-17 26 -19 9 -31 -15 -11 -16 -13 -2 -13 9 0 18 6 21 13 3 9 8 9 23 -3 18 -14
18 -14 2 6 -23 26 -23 48 -2 40 12 -4 15 -2 10 9 -4 13 -2 14 14 5 17 -9 20
-7 26 17 11 45 15 47 41 17 l25 -29 -7 30 c-14 66 -65 156 -65 115 0 -5 -7
-10 -16 -10 -8 0 -12 -4 -9 -10 4 -6 -1 -7 -10 -3 -10 3 -21 0 -26 -8 -7 -12
-9 -12 -9 1 0 8 -7 2 -15 -14 -8 -15 -12 -32 -9 -37 3 -5 0 -9 -7 -9 -7 0 -4
-7 7 -15 17 -14 16 -14 -13 0 -39 19 -43 19 -43 0 0 -8 -6 -12 -14 -9 -8 3
-17 0 -21 -5 -3 -6 -11 -9 -16 -6 -5 3 -6 -2 -2 -11 4 -10 2 -15 -3 -11 -6 3
-18 -8 -28 -24 -11 -19 -23 -28 -32 -25 -9 3 -12 1 -9 -4 3 -6 -1 -10 -10 -10
-9 0 -13 -5 -10 -10 4 -7 -3 -9 -22 -4 -27 6 -27 6 -8 -9 15 -11 17 -18 8 -28
-10 -13 -13 -20 -13 -34 0 -3 -12 2 -27 12 l-28 17 20 -23 20 -24 -22 12 c-31
16 -40 14 -17 -4 18 -14 17 -14 -9 -5 -19 7 -26 7 -22 0 3 -6 3 -10 -2 -10
-17 0 -34 17 -38 39 -3 17 2 23 25 28 27 5 28 7 13 21 -10 11 -12 17 -4 20 6
2 9 8 5 13 -3 5 7 9 22 9 17 0 24 4 18 9 -7 7 -118 51 -128 51 -2 0 -1 -46 0
-102 3 -72 8 -106 18 -116 10 -11 12 -21 5 -38 -4 -13 -5 -24 -1 -25 4 0 -9
-7 -28 -14 -19 -7 -27 -14 -17 -14 30 -2 18 -21 -13 -21 -16 0 -30 -4 -30 -10
0 -5 7 -10 15 -10 8 0 15 -4 15 -10 0 -5 -9 -10 -21 -10 -20 0 -20 -1 5 -31
14 -17 26 -39 26 -50 0 -23 -2 -23 52 -5 125 41 158 33 258 -60 l78 -74 133
-2 134 -2 -135 -6 c-74 -3 -128 -8 -120 -12 8 -4 99 -8 202 -11 179 -3 186 -3
177 15 -5 10 -21 18 -34 18 -27 0 -34 17 -10 26 8 3 47 2 87 -3 59 -6 73 -12
76 -26 3 -15 -1 -18 -16 -13 -12 4 -24 0 -32 -9 -12 -15 -7 -16 51 -9 35 3 68
10 73 15 6 5 6 9 2 9 -5 0 -2 8 5 17 12 15 12 16 -1 8 -12 -7 -13 -6 -3 7 7 8
10 18 6 21 -3 4 -1 7 6 7 9 0 9 5 0 21 -8 16 -8 23 0 28 8 5 7 18 -3 47 -12
33 -15 35 -16 14 -1 -14 -5 -34 -9 -45 -8 -19 -8 -19 -18 0 -6 11 -13 43 -16
70 -6 50 -6 50 9 20 l15 -30 -4 33 c-2 18 1 36 6 39 6 3 7 1 3 -5 -4 -7 -2
-12 3 -12 6 0 11 11 11 25 0 14 5 25 10 25 10 0 14 -14 10 -39 -1 -8 10 0 25
17 53 63 146 64 199 2 13 -16 26 -26 30 -23 8 8 26 -43 26 -73 0 -21 3 -23 19
-14 30 16 46 13 31 -5 -9 -10 -9 -15 -1 -15 6 0 11 -4 11 -9 0 -5 -9 -7 -20
-4 -12 3 -20 0 -20 -6 0 -7 5 -9 11 -5 8 4 8 1 1 -13 -6 -10 -22 -25 -36 -32
-14 -8 -23 -18 -20 -23 3 -4 -2 -8 -11 -8 -9 0 -23 -7 -31 -15 -14 -13 -8 -15
55 -15 69 0 70 0 97 38 15 20 50 60 77 88 46 48 48 52 28 59 -11 3 -21 11 -21
16 0 5 -8 9 -17 10 -15 0 -15 2 2 9 19 8 19 9 1 9 -15 1 -16 4 -6 16 11 13 10
14 -6 8 -17 -6 -17 -5 -5 10 11 14 11 18 -3 23 -9 3 -13 10 -10 15 3 5 -3 9
-13 10 -10 0 -13 3 -6 6 10 3 10 9 0 26 -7 12 -14 24 -17 27 -3 3 -5 12 -5 20
0 8 -8 14 -18 13 -12 0 -16 4 -13 13 4 11 -1 13 -22 8 -15 -4 -34 -10 -42 -15
-12 -6 -12 -9 5 -15 24 -9 49 -34 53 -54 2 -8 7 -16 12 -18 5 -2 7 -9 4 -17
-3 -7 0 -16 6 -20 8 -5 8 -11 -1 -21 -9 -11 -6 -16 12 -23 13 -5 20 -11 14
-12 -53 -9 -61 -6 -95 37 -19 24 -41 44 -47 44 -7 0 -13 4 -13 10 0 5 -12 13
-27 16 -16 4 -34 11 -40 16 -7 6 -21 7 -30 4 -15 -5 -15 -4 1 9 11 8 26 15 34
15 7 0 12 6 9 13 -2 6 5 25 16 41 12 16 16 26 9 22 -8 -5 -10 4 -9 28 3 25 0
33 -10 29 -8 -3 -12 -13 -10 -22 3 -16 -21 -71 -46 -104 -14 -17 -36 -23 -38
-9 -3 19 -9 100 -10 122 -3 55 1 72 14 67 9 -3 22 19 41 69 16 41 34 74 40 74
7 0 20 16 29 35 21 43 13 44 -30 3 l-33 -32 -1 30 c-1 22 -3 24 -6 7 -3 -14
-11 -21 -24 -20 -10 1 -19 4 -19 7 0 3 -8 6 -17 7 -40 4 -89 16 -99 24 -6 5
-21 11 -35 13 -13 3 -24 5 -24 6 0 1 -10 3 -22 4 -13 2 -23 -1 -23 -5 0 -4
-17 -3 -37 2 -33 7 -122 4 -131 -5 -1 -2 2 -24 8 -49 7 -25 10 -53 7 -63 -3
-14 -5 -12 -6 7 -1 36 -30 129 -40 129 -4 0 0 -33 10 -72z m226 -140 c-2 -13
-4 -5 -4 17 -1 22 1 32 4 23 2 -10 2 -28 0 -40z m-92 -74 c-5 -27 -10 -41 -12
-31 -3 9 -9 15 -14 12 -5 -4 -9 6 -9 22 0 15 -3 38 -6 51 -5 16 -2 22 10 22
10 0 14 6 10 18 -2 9 3 3 12 -14 13 -25 15 -43 9 -80z m-405 52 c0 -2 -9 -2
-20 1 -11 3 -20 9 -20 15 0 5 9 4 20 -2 11 -6 20 -12 20 -14z m616 -31 c-2
-35 -32 -79 -46 -70 -5 3 -11 -1 -13 -7 -4 -8 -6 -7 -6 4 -1 9 4 20 9 23 6 3
10 14 10 23 0 12 35 58 47 61 1 1 1 -15 -1 -34z m-422 -101 c3 -8 2 -12 -4 -9
-6 3 -10 10 -10 16 0 14 7 11 14 -7z m343 -6 c-3 -8 -6 -5 -6 6 -1 11 2 17 5
13 3 -3 4 -12 1 -19z m-796 -46 c-6 -2 -9 -7 -6 -12 3 -4 -5 -6 -17 -2 -14 3
-19 1 -14 -6 3 -6 -3 -16 -14 -22 -18 -10 -19 -9 -10 14 6 17 5 26 -3 29 -7 3
8 4 32 4 23 -1 38 -3 32 -5z m446 -23 c43 -27 63 -66 63 -122 0 -36 -6 -51
-29 -76 l-29 -31 29 0 c34 0 38 -17 7 -29 -44 -18 -63 -24 -87 -27 -13 -1 -26
-6 -30 -10 -3 -4 7 -4 22 0 19 4 26 3 22 -4 -9 -15 11 -12 24 4 17 20 54 28
47 10 -3 -8 0 -14 7 -14 8 0 7 -4 -3 -10 -13 -8 -12 -10 1 -15 9 -3 16 -12 16
-20 0 -11 -13 -15 -51 -15 -60 0 -87 13 -69 31 10 10 1 16 -39 31 -29 10 -61
18 -73 19 -20 0 -20 0 0 9 17 7 17 9 3 9 -10 1 -18 6 -18 12 0 5 -6 7 -12 3
-7 -4 -10 -4 -6 1 4 4 -4 23 -19 41 -14 19 -22 34 -19 34 4 0 4 6 -1 13 -16
25 -10 64 16 103 15 21 29 37 31 35 3 -2 21 6 40 18 46 28 112 28 157 0z m242
-96 c-5 -12 -4 -25 1 -28 5 -3 11 5 13 17 3 16 5 11 5 -12 1 -19 -3 -42 -9
-50 -9 -13 -10 -12 -5 2 3 10 1 20 -3 22 -14 9 -7 -30 9 -45 20 -19 75 -22 59
-3 -6 7 -16 12 -22 11 -8 -1 -13 17 -13 52 -1 33 1 48 7 40 4 -8 6 -25 3 -39
-4 -19 -3 -22 5 -10 5 8 13 12 16 8 3 -3 -1 -13 -10 -22 -9 -9 -13 -16 -8 -16
5 0 14 5 21 12 14 14 13 17 16 -54 2 -32 -1 -55 -6 -52 -4 3 -8 0 -8 -5 0 -6
-16 6 -36 27 -23 24 -37 33 -41 25 -7 -19 -41 -16 -51 5 -11 21 -6 40 20 69
11 11 22 40 25 64 5 33 8 39 13 24 4 -11 4 -30 -1 -42z m-123 -49 c5 -37 3
-53 -9 -62 -13 -11 -15 -4 -19 50 -3 35 -3 67 0 71 9 17 23 -11 28 -59z m191
44 c-3 -8 -6 -5 -6 6 -1 11 2 17 5 13 3 -3 4 -12 1 -19z m474 -55 c-10 -4 -11
-7 -1 -13 7 -4 9 -13 5 -20 -5 -8 -13 -6 -26 9 -24 26 -24 26 9 27 15 1 21 -1
13 -3z m96 -39 c-3 -3 -12 -4 -19 -1 -8 3 -5 6 6 6 11 1 17 -2 13 -5z"/>
<path d="M654 1069 c-23 -24 -29 -39 -29 -75 0 -39 5 -50 33 -75 36 -32 69
-36 112 -14 37 19 50 43 50 95 0 91 -103 134 -166 69z m134 -1 c17 -14 15 -53
-3 -68 -9 -7 -17 -11 -19 -9 -22 29 -46 81 -41 89 7 11 41 4 63 -12z"/>
<path d="M596 1073 c-6 -14 -5 -15 5 -6 7 7 10 15 7 18 -3 3 -9 -2 -12 -12z"/>
<path d="M582 1020 c0 -19 2 -27 5 -17 2 9 2 25 0 35 -3 9 -5 1 -5 -18z"/>
<path d="M775 789 c-16 -6 -14 -8 13 -8 33 -1 41 4 20 12 -7 2 -22 1 -33 -4z"/>
<path d="M788 763 c12 -2 30 -2 40 0 9 3 -1 5 -23 4 -22 0 -30 -2 -17 -4z"/>
<path d="M1080 876 c0 -2 7 -9 15 -16 9 -7 15 -8 15 -2 0 5 -7 12 -15 16 -8 3
-15 4 -15 2z"/>
<path d="M1591 1489 c-24 -5 -46 -11 -49 -14 -7 -7 45 -4 83 4 46 10 16 19
-34 10z"/>
<path d="M1668 1493 c7 -3 16 -2 19 1 4 3 -2 6 -13 5 -11 0 -14 -3 -6 -6z"/>
<path d="M1783 1476 c12 -10 15 -16 7 -21 -6 -4 -19 0 -29 9 -10 9 -31 16 -47
16 l-29 0 25 -20 c14 -10 26 -17 29 -15 4 5 39 -37 37 -46 -2 -9 25 -39 34
-39 5 0 13 23 20 50 14 59 4 80 -39 80 -24 -1 -25 -2 -8 -14z"/>
<path d="M1615 1460 c-4 -6 11 -10 37 -10 31 0 39 3 28 10 -20 13 -57 13 -65
0z"/>
<path d="M1558 1433 c7 -3 16 -2 19 1 4 3 -2 6 -13 5 -11 0 -14 -3 -6 -6z"/>
<path d="M1686 1431 c-3 -5 4 -11 16 -14 30 -8 35 -1 9 12 -11 6 -22 7 -25 2z"/>
<path d="M1598 1423 c7 -3 16 -2 19 1 4 3 -2 6 -13 5 -11 0 -14 -3 -6 -6z"/>
<path d="M1640 1409 c11 -8 7 -9 -20 -6 -20 3 -46 0 -58 -7 -20 -11 -15 -13
52 -25 80 -13 181 -55 171 -71 -3 -6 -12 -10 -18 -10 -8 0 -7 3 2 9 10 7 8 9
-10 9 -13 0 -52 10 -86 22 -43 16 -71 20 -90 15 -17 -4 -22 -9 -14 -12 11 -5
11 -7 0 -14 -9 -6 0 -9 26 -9 35 -1 37 -2 20 -12 -19 -11 -19 -11 0 -19 11 -4
36 -8 55 -9 l35 -2 -33 -8 c-18 -4 -36 -10 -39 -14 -11 -11 41 -6 87 8 34 10
40 15 25 19 -15 3 -13 5 10 7 17 1 35 1 40 0 5 -1 7 2 3 5 -4 4 -3 16 3 27 15
28 -20 62 -88 88 -60 22 -99 27 -73 9z m130 -65 c0 -2 -13 2 -30 11 -16 9 -30
18 -30 21 0 2 14 -2 30 -11 17 -9 30 -18 30 -21z"/>
<path d="M420 1390 c14 -4 34 -8 45 -9 16 -1 17 1 5 9 -8 5 -28 9 -45 9 -29
-1 -29 -1 -5 -9z"/>
<path d="M622 1393 c-6 -2 -10 -9 -6 -14 8 -14 21 -11 21 6 0 8 -1 15 -1 14
-1 0 -7 -3 -14 -6z"/>
<path d="M1337 1358 c-9 -23 -14 -44 -11 -47 7 -7 24 21 18 31 -3 4 -1 8 4 8
12 0 23 38 12 45 -4 2 -15 -14 -23 -37z"/>
<path d="M283 1382 c-33 -2 -43 -7 -43 -21 0 -13 22 -26 82 -49 45 -17 86 -29
90 -26 5 3 6 15 2 26 -5 16 -3 18 7 12 8 -5 20 -9 27 -10 10 -2 10 1 1 12 -6
7 -14 12 -18 10 -3 -2 -15 2 -26 10 -18 13 -17 14 10 14 15 0 26 3 23 6 -10 9
-109 19 -155 16z"/>
<path d="M1361 1338 c-19 -39 -19 -42 -3 -55 16 -12 15 -13 -3 -7 -16 5 -17 4
-5 -4 17 -13 33 -5 26 14 -3 8 0 11 10 7 10 -4 17 2 21 16 3 12 10 18 17 14 6
-4 5 1 -3 11 -11 13 -16 14 -22 4 -7 -10 -9 -10 -10 2 -1 8 -1 21 0 28 3 23
-7 12 -28 -30z m30 -25 c13 -16 12 -17 -3 -4 -10 7 -18 15 -18 17 0 8 8 3 21
-13z"/>
<path d="M1427 1290 c-8 -11 -17 -17 -22 -12 -5 4 -5 1 0 -7 7 -12 10 -11 21
3 7 11 15 13 18 7 4 -6 -2 -18 -14 -28 -11 -10 -20 -24 -20 -32 0 -12 3 -12
12 -3 15 15 31 16 22 0 -5 -8 -2 -9 12 -4 15 6 14 2 -6 -20 -14 -15 -19 -24
-12 -20 6 4 12 2 12 -3 0 -14 23 -14 54 0 28 13 45 42 19 32 -13 -5 -14 -3 -4
15 13 24 3 29 -18 10 -11 -11 -12 -9 -2 8 9 20 7 24 -24 39 -20 9 -33 20 -30
26 12 18 -4 9 -18 -11z"/>
<path d="M1685 1226 l-40 -12 67 1 c47 0 68 4 68 13 0 15 -42 15 -95 -2z"/>
<path d="M618 1193 c7 -3 16 -2 19 1 4 3 -2 6 -13 5 -11 0 -14 -3 -6 -6z"/>
<path d="M1670 1191 c21 -6 22 -8 8 -14 -10 -3 -18 -11 -18 -18 0 -6 7 -9 15
-5 10 4 15 -1 15 -14 0 -11 4 -20 9 -20 6 0 8 -9 6 -20 -2 -11 0 -20 6 -20 11
0 7 -22 -6 -32 -5 -4 -1 -7 10 -7 26 1 74 17 56 18 -10 1 -12 13 -6 58 4 31 9
62 12 70 4 10 -10 13 -63 12 -45 -1 -60 -3 -44 -8z"/>
<path d="M1739 1033 c-22 -3 -26 -8 -23 -33 2 -19 -2 -32 -12 -38 -15 -8 -15
-10 0 -15 10 -4 16 -1 16 6 0 15 44 58 75 75 19 11 19 11 -5 10 -14 0 -37 -3
-51 -5z"/>
<path d="M1313 1013 c-32 -6 -73 -59 -73 -94 0 -97 96 -144 161 -80 69 69 7
192 -88 174z m79 -30 c23 -20 23 -36 0 -56 -16 -15 -19 -15 -31 6 -8 12 -21
32 -29 45 -14 21 -13 22 14 22 15 0 36 -7 46 -17z"/>
<path d="M1785 926 c-71 -14 -102 -33 -148 -89 -60 -74 -63 -85 -36 -134 17
-30 34 -47 61 -58 55 -22 75 -19 93 13 10 18 14 20 10 7 -3 -15 0 -21 13 -23
9 -1 34 -4 55 -8 29 -5 43 -2 58 12 18 16 19 16 13 1 -5 -14 1 -17 38 -17 48
0 98 33 98 65 0 13 10 16 48 15 82 -3 136 0 129 6 -4 4 -33 8 -66 9 -72 4 -81
8 -81 43 0 72 -76 141 -185 168 -33 8 -33 -13 -1 -26 79 -29 75 -176 -4 -178
-16 0 -34 5 -40 12 -13 16 -2 48 14 39 8 -4 8 -2 -1 7 -15 16 -6 40 16 40 13
0 14 2 2 9 -12 8 -12 14 -3 33 12 23 12 23 6 1 -3 -13 -1 -23 5 -23 21 0 11
45 -11 55 -13 6 -22 16 -20 23 1 7 1 12 0 11 -2 -1 -30 -6 -63 -13z m-72 -83
c-1 -50 0 -52 5 -18 5 26 9 34 13 24 10 -22 -12 -124 -22 -107 -7 10 -9 8 -9
-6 0 -16 -2 -17 -17 -5 -11 9 -14 10 -9 2 5 -9 2 -11 -8 -7 -19 7 -20 25 -5
79 9 32 44 95 52 95 1 0 1 -26 0 -57z m51 7 c4 -31 3 -40 -4 -30 -5 8 -10 30
-10 49 0 45 6 37 14 -19z m256 -45 c20 -37 -1 -103 -32 -101 -25 1 -27 15 -13
73 4 18 11 30 16 27 5 -3 6 2 3 10 -10 26 11 18 26 -9z m-273 -7 c-3 -8 -6 -5
-6 6 -1 11 2 17 5 13 3 -3 4 -12 1 -19z"/>
<path d="M2012 770 c0 -14 2 -19 5 -12 2 6 2 18 0 25 -3 6 -5 1 -5 -13z"/>
<path d="M266 860 c-54 -21 -92 -52 -102 -84 -9 -29 -34 -45 -69 -46 -16 -1
-39 -5 -50 -10 -14 -6 0 -9 46 -9 63 -1 69 -3 95 -35 46 -54 62 -70 76 -82 23
-18 91 -24 125 -12 27 10 32 16 27 33 -5 18 -4 17 11 -4 15 -20 24 -22 58 -18
54 7 78 34 88 97 8 51 7 54 -28 97 -75 91 -168 115 -277 73z m176 -9 c6 -10
18 -17 25 -14 8 3 13 0 11 -8 -2 -8 3 -13 10 -11 8 1 11 -2 7 -8 -3 -5 -2 -10
2 -10 11 0 33 -59 33 -87 0 -30 -30 -39 -31 -10 -1 15 -3 17 -6 5 -2 -9 -10
-18 -16 -21 -9 -3 -12 14 -10 65 2 47 -1 67 -8 62 -6 -4 -8 -21 -5 -43 5 -31
4 -33 -5 -11 -5 14 -8 33 -5 44 5 19 -13 56 -27 56 -5 0 -6 -8 -2 -17 5 -14 3
-15 -6 -6 -12 12 -5 33 12 33 5 0 14 -9 21 -19z m-165 -26 c-4 -8 -2 -17 4
-20 5 -4 7 -10 4 -15 -3 -5 6 -18 21 -29 14 -11 27 -27 28 -35 1 -8 10 -24 19
-34 17 -18 17 -19 -5 -18 -13 0 -23 6 -23 13 0 6 -4 15 -9 20 -6 5 -6 2 -1 -6
6 -11 4 -13 -11 -7 -16 6 -16 4 4 -14 12 -11 22 -23 22 -25 0 -8 -54 18 -70
33 -8 8 -9 12 -3 8 9 -5 11 -2 7 8 -3 9 -10 13 -15 10 -15 -9 -10 65 6 96 16
31 32 42 22 15z m153 -32 c0 -21 -3 -24 -9 -14 -5 8 -7 20 -4 28 8 21 13 15
13 -14z"/>
<path d="M295 730 c3 -5 8 -10 11 -10 2 0 4 5 4 10 0 6 -5 10 -11 10 -5 0 -7
-4 -4 -10z"/>
<path d="M178 843 c7 -3 16 -2 19 1 4 3 -2 6 -13 5 -11 0 -14 -3 -6 -6z"/>
<path d="M1856 812 c-3 -5 1 -9 9 -9 8 0 12 4 9 9 -3 4 -7 8 -9 8 -2 0 -6 -4
-9 -8z"/>
<path d="M1226 772 c-3 -5 1 -9 9 -9 8 0 12 4 9 9 -3 4 -7 8 -9 8 -2 0 -6 -4
-9 -8z"/>
<path d="M1865 760 c-4 -6 -11 -7 -17 -4 -7 4 -8 2 -4 -5 6 -9 11 -9 22 0 14
11 18 19 10 19 -3 0 -8 -5 -11 -10z"/>
<path d="M1224 743 c3 -3 22 -7 42 -9 20 -1 33 0 30 3 -3 3 -22 7 -42 9 -20 1
-33 0 -30 -3z"/>
<path d="M1328 742 c8 -5 12 -13 10 -18 -4 -12 193 -17 204 -6 5 5 -32 11 -89
15 -54 3 -107 9 -118 12 -14 5 -16 4 -7 -3z"/>
<path d="M1238 713 c7 -3 16 -2 19 1 4 3 -2 6 -13 5 -11 0 -14 -3 -6 -6z"/>
</g>
</svg>
